<svg xmlns="http://www.w3.org/2000/svg" width="24" height="24" viewBox="0 0 24 24">
  <g fill="none" fill-rule="evenodd">
    <rect width="24" height="24"/>
    <path fill="#000" fill-rule="nonzero" d="M12,1 C15.3137085,1 18,3.6862915 18,7 C18,9.65611003 16.2740959,11.9091136 13.8825789,12.6987194 C17.8661562,13.5451988 20.8743613,17.0281367 20.9961629,21.2346377 L21,21.5 L21,23 L20,23 L20,21.5 C20,17.081722 16.418278,13.5 12,13.5 C7.66508574,13.5 4.13545713,16.9478378 4.00380682,21.2508207 L4,21.5 L4,23 L3,23 L3,21.5 C3,17.1752554 6.05038188,13.5629656 10.1169821,12.6972942 C7.72590409,11.9091136 6,9.65611003 6,7 C6,3.6862915 8.6862915,1 12,1 Z M12,2 C9.23857625,2 7,4.23857625 7,7 C7,9.76142375 9.23857625,12 12,12 C14.7614237,12 17,9.76142375 17,7 C17,4.23857625 14.7614237,2 12,2 Z"/>
  </g>
</svg>
